<?xml version="1.0" standalone="no"?>
<!DOCTYPE svg PUBLIC "-//W3C//DTD SVG 20010904//EN"
 "http://www.w3.org/TR/2001/REC-SVG-20010904/DTD/svg10.dtd">
<svg version="1.0" xmlns="http://www.w3.org/2000/svg"
 width="364.000000pt" height="364.000000pt" viewBox="0 0 364.000000 364.000000"
 preserveAspectRatio="xMidYMid meet">
<metadata>
Created by potrace 1.14, written by Peter Selinger 2001-2017
</metadata>
<g transform="translate(0.000000,364.000000) scale(0.100000,-0.100000)"
fill="#000000" stroke="none">
<path d="M1774 3330 c-5 -5 -43 -12 -84 -15 -41 -3 -98 -10 -126 -16 -28 -5
-63 -12 -79 -15 -16 -3 -32 -7 -35 -9 -4 -2 -21 -7 -39 -10 -18 -3 -60 -17
-93 -30 -33 -14 -64 -22 -68 -20 -5 3 -10 1 -12 -3 -1 -5 -39 -26 -83 -49
-143 -71 -137 -68 -250 -155 -96 -75 -285 -264 -285 -286 0 -5 -9 -17 -20 -27
-11 -10 -20 -24 -20 -31 0 -7 -4 -14 -9 -16 -9 -3 -89 -144 -112 -195 -8 -18
-17 -33 -21 -33 -5 0 -7 -3 -6 -7 1 -5 -12 -51 -30 -104 -18 -52 -35 -106 -38
-120 -3 -13 -6 -28 -8 -34 -1 -5 -8 -50 -16 -100 -7 -49 -17 -95 -22 -102 -5
-6 -5 -13 -1 -16 5 -3 7 -23 5 -44 -5 -59 -5 -74 -2 -134 2 -30 0 -61 -5 -69
-5 -8 -4 -11 3 -6 7 4 11 -4 10 -21 0 -16 3 -44 6 -63 18 -95 38 -184 47 -207
5 -13 7 -29 3 -34 -3 -5 -2 -9 3 -9 7 0 24 -41 37 -90 14 -49 117 -233 178
-316 20 -29 34 -55 30 -59 -4 -4 -2 -5 4 -3 6 1 28 -17 49 -42 48 -58 146
-151 207 -198 26 -20 48 -40 48 -44 0 -4 5 -8 10 -8 6 0 37 -18 70 -39 32 -22
68 -42 80 -46 11 -3 18 -11 15 -16 -3 -5 1 -6 9 -3 10 4 16 1 16 -7 0 -7 3 -9
7 -6 3 4 11 3 17 -2 18 -15 135 -61 219 -87 92 -28 196 -49 280 -56 15 -1 27
-6 27 -11 0 -4 5 -5 12 -1 7 4 32 7 57 5 92 -6 171 -6 171 0 0 3 19 6 43 7 23
1 53 5 67 7 23 5 69 13 115 19 11 2 31 8 45 13 14 6 33 9 43 7 10 -1 15 1 12
7 -6 8 16 13 53 12 6 -1 12 3 12 7 0 4 12 11 27 14 29 8 235 106 243 116 3 4
16 13 30 20 31 17 134 92 138 103 2 4 7 7 12 7 5 0 39 29 75 65 37 36 71 65
76 65 5 0 9 6 9 14 0 8 4 16 8 18 6 2 57 64 110 133 17 23 89 143 107 180 11
22 25 43 30 47 6 4 6 8 1 8 -5 0 -4 6 2 13 6 7 18 35 28 62 9 28 21 61 27 75
5 14 11 30 11 35 1 6 8 30 15 55 16 53 17 59 26 127 4 29 10 51 14 49 5 -4 10
79 11 229 1 84 -7 167 -26 270 -11 63 -13 70 -14 73 -2 1 -3 5 -4 10 -1 4 -7
25 -14 46 -6 22 -9 43 -6 48 3 4 0 8 -5 8 -6 0 -10 3 -9 8 1 4 -6 25 -16 47
-10 22 -19 50 -19 62 -1 12 -4 20 -6 18 -2 -2 -22 33 -45 78 -23 45 -49 94
-59 108 -9 14 -14 29 -10 34 5 4 3 5 -3 2 -6 -3 -17 6 -25 21 -8 15 -21 32
-29 39 -8 7 -11 13 -5 13 5 0 -1 7 -13 16 -13 9 -21 22 -18 30 3 8 0 11 -10 7
-7 -3 -14 0 -14 6 0 15 -164 178 -227 225 -29 22 -49 44 -46 49 3 6 1 7 -5 3
-11 -7 -112 52 -112 65 0 5 -3 8 -7 7 -15 -3 -73 28 -66 35 3 4 -3 7 -14 7
-11 0 -49 13 -84 29 -35 16 -83 35 -106 41 -24 7 -43 17 -43 22 0 5 -3 7 -8 4
-9 -5 -155 28 -148 34 2 3 -10 5 -27 6 -75 1 -143 10 -149 19 -5 6 -8 5 -8 -3
0 -7 -5 -10 -11 -6 -6 3 -38 6 -71 5 -37 -1 -57 3 -53 9 8 13 2 13 -11 0z"/>
<path d="M720 2900 c-9 -6 -10 -10 -3 -10 6 0 15 5 18 10 8 12 4 12 -15 0z"/>
<path d="M3260 1306 c0 -2 8 -10 18 -17 15 -13 16 -12 3 4 -13 16 -21 21 -21
13z"/>
</g>
</svg>
